<?xml version="1.0" standalone="no"?>
<!DOCTYPE svg PUBLIC "-//W3C//DTD SVG 20010904//EN"
 "http://www.w3.org/TR/2001/REC-SVG-20010904/DTD/svg10.dtd">
<svg version="1.0" xmlns="http://www.w3.org/2000/svg"
 width="1200.000000pt" height="541.000000pt" viewBox="0 0 1200.000000 541.000000"
 preserveAspectRatio="xMidYMid meet">

<g transform="translate(0.000000,541.000000) scale(0.100000,-0.100000)"
fill="#000000" stroke="none">
<path d="M1795 5252 c-48 -23 -69 -45 -90 -95 -20 -49 -19 -82 5 -132 28 -58
86 -90 165 -90 42 1 68 6 88 19 35 24 65 82 73 140 16 116 -129 211 -241 158z"/>
<path d="M1054 5116 c-19 -50 45 -198 126 -288 33 -37 105 -94 203 -159 84
-56 179 -122 211 -146 l59 -45 41 22 c90 49 267 172 263 183 -6 20 -173 103
-296 148 -169 61 -342 146 -454 222 -109 74 -143 88 -153 63z"/>
<path d="M2135 4419 c-33 -28 -99 -77 -147 -110 -49 -33 -88 -62 -88 -64 0 -3
22 -35 49 -72 178 -244 212 -498 120 -875 -22 -90 -26 -124 -19 -139 6 -10 14
-19 18 -19 30 0 99 90 189 245 54 93 87 176 120 304 24 93 28 124 27 251 0
138 -2 150 -34 244 -23 68 -52 126 -94 189 -34 50 -65 92 -71 94 -5 1 -37 -20
-70 -48z"/>
<path d="M1190 3269 c-89 -40 -131 -104 -131 -198 -1 -108 48 -181 140 -208
181 -52 337 92 286 265 -40 132 -173 196 -295 141z"/>
<path d="M2192 3087 c-106 -100 -216 -178 -352 -251 -93 -49 -180 -84 -520
-213 -124 -47 -260 -100 -302 -118 -297 -130 -629 -433 -802 -731 -145 -251
-209 -495 -210 -799 0 -199 12 -280 61 -429 56 -169 219 -483 271 -524 22 -17
67 -15 82 3 17 20 14 94 -11 310 -27 228 -23 503 10 657 46 214 122 394 240
570 150 221 230 292 591 518 480 300 544 345 699 495 153 148 252 281 327 439
38 79 50 155 27 163 -6 2 -56 -38 -111 -90z"/>
<path d="M3696 2500 c-16 -5 -33 -15 -37 -22 -5 -7 -9 -399 -9 -870 l0 -858
24 -15 c21 -14 51 -16 185 -13 114 2 164 7 173 16 10 10 14 83 16 308 2 225 6
294 15 292 7 -3 119 -128 249 -279 130 -151 253 -289 272 -306 l36 -33 232 0
c128 0 239 4 247 9 9 6 11 18 8 33 -4 13 -138 168 -298 344 -418 457 -449 492
-449 509 0 8 156 196 346 418 190 221 351 412 357 425 20 43 2 47 -221 50
-153 2 -213 -1 -232 -11 -13 -7 -139 -142 -280 -301 -141 -159 -261 -291 -267
-293 -9 -3 -13 68 -15 281 -3 257 -5 287 -21 303 -15 15 -39 18 -160 20 -78 1
-155 -2 -171 -7z"/>
<path d="M6095 2506 c-5 -3 -22 -7 -37 -10 -20 -5 -34 -19 -51 -54 -42 -82
-639 -1681 -635 -1699 3 -16 21 -18 183 -21 99 -1 190 0 202 3 22 5 50 68 108
245 15 47 35 93 43 103 14 16 40 17 321 15 l306 -3 61 -168 c34 -92 67 -174
74 -182 10 -12 46 -15 195 -15 186 0 215 3 215 24 0 6 -144 393 -320 860 -233
619 -326 857 -345 875 -24 25 -30 26 -168 28 -78 1 -146 1 -152 -1z m233 -753
c51 -159 92 -291 92 -295 0 -5 -88 -8 -195 -8 -178 0 -195 1 -195 17 0 31 184
573 195 573 6 0 52 -129 103 -287z"/>
<path d="M7586 2500 c-16 -5 -33 -15 -37 -22 -5 -7 -9 -383 -9 -836 0 -914 -2
-879 64 -907 52 -22 902 -22 932 -1 17 13 19 27 19 165 0 131 -2 153 -18 168
-16 16 -45 18 -303 21 l-285 3 -10 27 c-8 18 -10 240 -7 689 3 623 2 663 -15
680 -15 15 -39 18 -160 20 -78 1 -155 -2 -171 -7z"/>
<path d="M9156 2500 c-16 -5 -33 -15 -37 -22 -5 -7 -9 -399 -9 -870 l0 -858
24 -15 c22 -15 71 -16 423 -12 341 3 406 6 457 21 198 58 333 195 371 373 28
129 14 246 -40 353 -54 106 -134 171 -267 214 -14 4 -4 18 46 68 107 108 151
235 129 377 -28 177 -144 307 -319 357 -49 14 -117 18 -404 20 -192 2 -358 -1
-374 -6z m632 -363 c49 -27 72 -71 72 -142 0 -126 -57 -164 -242 -165 l-118 0
0 166 0 166 128 -4 c97 -3 135 -8 160 -21z m104 -735 c71 -35 93 -72 93 -154
0 -81 -19 -112 -91 -148 -46 -24 -58 -25 -219 -25 l-170 0 -3 178 -2 179 172
-4 c157 -3 177 -5 220 -26z"/>
<path d="M11030 2503 c-40 -15 -40 -4 -40 -888 0 -754 2 -853 16 -873 l15 -22
468 0 c441 0 469 1 484 18 23 25 25 297 3 328 -14 18 -30 19 -293 22 -245 2
-279 5 -290 19 -9 12 -13 63 -13 169 0 125 3 155 16 168 13 14 49 16 238 16
196 0 225 2 237 17 10 12 14 51 14 150 0 122 -2 136 -19 149 -16 11 -66 14
-243 14 -210 0 -223 1 -233 19 -5 11 -10 82 -10 160 0 114 3 142 16 155 13 14
54 16 289 16 235 0 276 2 289 16 22 22 23 300 2 330 -14 18 -32 19 -473 21
-252 1 -465 -1 -473 -4z"/>
</g>
</svg>
